<svg enable-background="new 0 0 485.9 372.5" viewBox="0 0 485.9 372.5" xmlns="http://www.w3.org/2000/svg"><path d="m253.4 109.4c-48 28.5-67.6 86.3-43.7 132.1 7.2 13.8 17.6 25 29.9 33.2 38.3-22.4 60.6-63.7 52.7-105.7-4.7-24.7-19-45.4-38.9-59.6z" fill="#d8f2d6"/><path d="m398.3 143c-24.8-47.5-87.1-64-139.2-36.8s-74.2 87.7-49.4 135.3c24.8 47.5 87.1 64 139.2 36.8 52.1-27.3 74.2-87.8 49.4-135.3z" style="fill:none;stroke:#f00;stroke-width:2.5;stroke-linecap:round;stroke-linejoin:round;stroke-miterlimit:10;stroke-opacity:.698"/><path d="m292.2 169c-10.4-54.9-68.5-90.1-130-78.5-61.3 11.5-102.7 65.5-92.4 120.4 10.4 54.9 68.5 90.1 130 78.5 61.4-11.6 102.8-65.5 92.4-120.4z" style="fill:none;stroke:#00f;stroke-width:2.5;stroke-linecap:round;stroke-linejoin:round;stroke-miterlimit:10;stroke-opacity:.698"/><path d="m437.8 172.8c-6.3-92.7-101.9-161.6-213.4-154-111.5 7.6-196.8 88.8-190.5 181.5s101.9 161.6 213.4 154c111.5-7.6 196.8-88.9 190.5-181.5z" fill="none" stroke="#006400" stroke-miterlimit="10" stroke-opacity=".698" stroke-width="2"/><path d="m437.8 172.8c-6.3-92.7-101.9-161.6-213.4-154-111.5 7.6-196.8 88.8-190.5 181.5s101.9 161.6 213.4 154c111.5-7.6 196.8-88.9 190.5-181.5z" fill="none" stroke="#006400" stroke-miterlimit="10" stroke-opacity=".698" stroke-width="2"/><path d="m310.5 75h-6.7v5.3h4.3c.1 0 .2 0 .4 0 .2 0 .3 0 .4 0h2.6v1.5h-9.4v-14.2h9.1v1.4h-3.7c-.1 0-.2 0-.4 0-.2 0-.3 0-.4 0h-2.8v4.8h6.7v1.2z" fill="#f00"/><path d="m314.7 82.1l1.1-1c .3-.3.5-.5.6-.7.1-.1.3-.4.5-.6.2-.3.3-.5.4-.8s.1-.5.1-.8c0-.6-.2-1.1-.6-1.5s-.9-.7-1.5-.7-1 .2-1.3.6-.5.9-.7 1.6c-.2-.2-.3-.4-.3-.4s0-.1-.1-.1c-.1-.1-.1-.2-.2-.3.4-1.6 1.4-2.3 2.8-2.3.9 0 1.7.3 2.2.9.6.6.8 1.3.8 2.2 0 .4-.1.7-.3 1.1-.2.4-.3.6-.5.8-.2.2-.4.4-.7.7-.1.1-.3.3-.6.6-.3.3-.5.5-.6.6s-.4.3-.9.9c-.5.5-.9.9-1.1 1h1.6c.1 0 .1 0 .3 0 .1 0 .2 0 .3 0h2.6v1h-5.7v-.9z" fill="#f00"/><path d="m117.4 89.2h-6.7v5.3h4.3c.1 0 .2 0 .4 0s .3 0 .4 0h2.6v1.5h-9.4v-14.2h9.1v1.3h-3.7c-.1 0-.2 0-.4 0-.2 0-.3 0-.4 0h-2.8v4.9h6.7z" fill="#00f"/><path d="m123.4 89.3v8.9h1.8v.8h-4.7v-.8h1.8v-7.4c-.5.2-1.1.3-1.9.3v-.8c1.2 0 2.2-.4 2.7-.9z" fill="#00f"/><path d="m95.2 57.8l0 0-.7 3.3h-3.3c-.3 0-.5 0-.5-.1s0-.1 0-.3c0-.9.3-2.3 1-4.1.7-1.9 1-3.3 1.1-4.1 0-.2 0-.4 0-.6 0-1.8-.6-3.1-1.9-4-.7-.5-1.4-.7-2.2-.7-1.2 0-2.1.4-2.9 1.3l0 0c-.8.8-1.2 2-1.2 3.4 0 1 .3 2.5 1 4.3.7 2 1.1 3.6 1.1 4.5 0 .2 0 .4-.1.4l0 0 0 0c-.1 0-.2 0-.3 0h-3.3l-.7-3.3h.5c.1.7.3 1.2.4 1.5.1.2.2.3.4.4.2.1.5.1 1 .1h1.6c-.2-.7-.7-1.8-1.5-3l-.1-.2c0-.1-.1-.1-.2-.3-1-1.5-1.6-2.7-1.7-3.6-.1-.3-.1-.6-.1-.9 0-1.4.6-2.6 1.8-3.6 1.2-1 2.7-1.5 4.4-1.5 1.8 0 3.4.6 4.6 1.7 1.1 1 1.6 2.1 1.6 3.5 0 1.1-.5 2.4-1.4 3.9l0 0 0 0 0 0-.3.5c-.9 1.4-1.5 2.4-1.7 3.1 0 .1-.1.2-.1.4h1.5c.7 0 1.2-.1 1.3-.3l.1-.2c.1-.3.2-.8.4-1.5z" fill="#006400"/><path d="m244.7 183.5v1.6h-8.9c0-.4.1-.8.2-1.1.2-.6.6-1.2 1.1-1.8s1.2-1.3 2.2-2c1.5-1.2 2.4-2.1 2.9-2.8s.8-1.4.8-2c0-.7-.2-1.2-.7-1.7-.5-.4-1.1-.7-1.8-.7-.8 0-1.4.2-1.9.7s-.7 1.1-.7 2l-1.7-.2c.1-1.3.6-2.2 1.3-2.9.8-.7 1.8-1 3-1 1.3 0 2.3.4 3 1.1.8.7 1.1 1.6 1.1 2.7 0 .5-.1 1.1-.3 1.6s-.6 1.1-1.1 1.6c-.5.6-1.4 1.4-2.5 2.4-1 .8-1.6 1.4-1.9 1.7-.3.3-.5.6-.7.9h6.6z"/><path d="m351.8 144.8h-1.7v-10.5c-.4.4-.9.8-1.6 1.1-.6.4-1.2.7-1.7.9v-1.6c.9-.4 1.7-1 2.4-1.6.7-.6 1.2-1.2 1.5-1.8h1.1z"/><path d="m323.5 229.3l1.6-.2c.2.9.5 1.6 1 2s1 .6 1.7.6c.8 0 1.4-.3 2-.8.5-.5.8-1.2.8-2s-.2-1.4-.7-1.9-1.1-.7-1.9-.7c-.3 0-.7.1-1.2.2l.2-1.4c.1 0 .2 0 .3 0 .7 0 1.3-.2 1.9-.5.6-.4.8-.9.8-1.7 0-.6-.2-1.1-.6-1.5s-.9-.6-1.6-.6c-.6 0-1.2.2-1.6.6-.4.4-.7 1-.8 1.8l-1.7-.3c.2-1.1.7-2 1.4-2.6.7-.6 1.6-.9 2.7-.9.7 0 1.4.2 2 .5s1.1.7 1.4 1.3c.3.5.5 1.1.5 1.7 0 .6-.2 1.1-.5 1.6s-.8.9-1.4 1.1c.8.2 1.4.6 1.9 1.1.4.6.7 1.3.7 2.2 0 1.2-.4 2.2-1.3 3s-1.9 1.2-3.2 1.2c-1.2 0-2.2-.4-2.9-1.1-1-.7-1.4-1.6-1.5-2.7z"/><path d="m138.6 158.4v-3.2h-5.8v-1.5l6.1-8.7h1.3v8.7h1.8v1.5h-1.8v3.2zm0-4.7v-6.1l-4.2 6.1z"/><path d="m147.5 225.5l-1.6.1c-.1-.6-.3-1.1-.6-1.4-.4-.5-1-.7-1.6-.7-.5 0-1 .1-1.4.4-.5.4-.9.9-1.2 1.7-.3.7-.5 1.8-.5 3.1.4-.6.9-1 1.5-1.3s1.2-.4 1.8-.4c1.1 0 2 .4 2.8 1.2s1.2 1.9 1.2 3.1c0 .8-.2 1.6-.5 2.3-.4.7-.9 1.3-1.5 1.7s-1.4.6-2.2.6c-1.4 0-2.5-.5-3.4-1.5s-1.3-2.7-1.3-5c0-2.6.5-4.5 1.4-5.7.8-1 2-1.5 3.4-1.5 1.1 0 1.9.3 2.6.9.6.5 1 1.4 1.1 2.4zm-6.7 5.8c0 .6.1 1.1.4 1.6.2.5.6.9 1 1.2s.9.4 1.4.4c.7 0 1.3-.3 1.8-.8.5-.6.8-1.3.8-2.3 0-.9-.2-1.7-.7-2.2s-1.1-.8-1.9-.8c-.7 0-1.4.3-1.9.8-.7.5-.9 1.2-.9 2.1z"/><path d="m237.2 314.4l1.7-.1c.1.8.4 1.5.9 1.9s1 .6 1.7.6c.8 0 1.5-.3 2-.9s.8-1.4.8-2.4c0-.9-.3-1.7-.8-2.2s-1.2-.8-2.1-.8c-.5 0-1 .1-1.4.4-.4.2-.8.6-1 .9l-1.5-.2 1.3-6.9h6.7v1.6h-5.3l-.7 3.6c.8-.6 1.6-.8 2.5-.8 1.2 0 2.2.4 3 1.2.8.8 1.2 1.9 1.2 3.1s-.4 2.3-1.1 3.2c-.9 1.1-2 1.6-3.5 1.6-1.2 0-2.2-.3-3-1-.9-.7-1.3-1.6-1.4-2.8z"/></svg>